<?xml version="1.0" standalone="no"?>
<!DOCTYPE svg PUBLIC "-//W3C//DTD SVG 20010904//EN"
 "http://www.w3.org/TR/2001/REC-SVG-20010904/DTD/svg10.dtd">
<svg version="1.0" xmlns="http://www.w3.org/2000/svg"
 width="862.000000pt" height="862.000000pt" viewBox="0 0 862.000000 862.000000"
 preserveAspectRatio="xMidYMid meet">
<metadata>
Created by potrace 1.15, written by Peter Selinger 2001-2017
</metadata>
<g transform="translate(0.000000,862.000000) scale(0.100000,-0.100000)"
fill="#000000" stroke="none">
<path d="M4145 8024 c-28 -62 -58 -129 -80 -179 -7 -16 -22 -50 -33 -75 -11
-25 -30 -67 -41 -95 -12 -27 -28 -61 -35 -75 -8 -14 -17 -40 -21 -57 -3 -18
-11 -33 -15 -33 -5 0 -15 -18 -21 -40 -7 -22 -16 -40 -21 -40 -4 0 -8 -8 -8
-17 0 -10 -11 -40 -25 -68 -13 -27 -25 -58 -25 -67 0 -10 -4 -18 -9 -18 -5 0
-13 -10 -16 -22 -8 -24 -22 -58 -60 -143 -12 -27 -32 -72 -44 -100 -12 -27
-28 -61 -36 -75 -7 -14 -16 -40 -20 -57 -3 -18 -10 -33 -15 -33 -5 0 -12 -10
-15 -22 -4 -13 -14 -39 -22 -58 -9 -19 -24 -55 -35 -80 -11 -25 -31 -68 -44
-95 -13 -28 -24 -58 -24 -68 0 -9 -4 -17 -10 -17 -5 0 -10 -6 -10 -12 0 -7
-12 -38 -26 -68 -49 -104 -89 -196 -99 -230 -4 -13 -14 -30 -21 -38 -8 -7 -14
-20 -14 -29 0 -8 -7 -27 -14 -41 -8 -15 -23 -45 -32 -67 -9 -22 -30 -69 -46
-105 -16 -36 -33 -74 -38 -85 -13 -32 -60 -136 -81 -181 -10 -22 -19 -48 -19
-57 0 -9 -4 -17 -10 -17 -5 0 -10 -5 -10 -12 0 -6 -9 -31 -20 -55 -25 -55 -53
-117 -75 -168 -21 -49 -55 -124 -84 -186 -11 -25 -21 -49 -21 -53 0 -4 -15
-38 -34 -75 -19 -38 -37 -83 -41 -100 -4 -17 -11 -31 -16 -31 -5 0 -9 -5 -9
-12 0 -6 -8 -30 -19 -52 -59 -128 -71 -156 -71 -170 0 -9 -4 -16 -10 -16 -5 0
-10 -5 -10 -12 0 -6 -8 -30 -19 -52 -74 -160 -83 -186 -63 -186 15 0 1508
-171 1529 -175 20 -5 21 -8 12 -42 -6 -21 -17 -52 -25 -70 -8 -17 -14 -40 -14
-51 0 -12 -4 -23 -9 -26 -5 -3 -12 -22 -16 -42 -3 -20 -10 -44 -14 -53 -5 -9
-16 -43 -26 -76 -10 -33 -23 -73 -30 -90 -21 -49 -45 -129 -45 -147 0 -10 -4
-18 -9 -18 -5 0 -11 -18 -15 -40 -3 -23 -11 -49 -16 -58 -5 -9 -23 -62 -41
-117 -17 -55 -35 -108 -40 -117 -5 -9 -12 -35 -15 -58 -4 -22 -10 -40 -14 -40
-5 0 -11 -18 -15 -40 -4 -22 -11 -42 -16 -46 -5 -3 -9 -14 -9 -26 0 -11 -6
-34 -13 -51 -8 -18 -22 -59 -32 -92 -10 -33 -24 -74 -31 -92 -8 -17 -14 -40
-14 -51 0 -12 -4 -23 -9 -26 -5 -4 -12 -24 -16 -46 -4 -22 -10 -42 -15 -45 -4
-3 -11 -22 -15 -42 -4 -21 -10 -42 -14 -48 -4 -5 -15 -37 -25 -70 -10 -33 -25
-77 -32 -98 -8 -20 -14 -46 -14 -57 0 -11 -4 -20 -9 -20 -6 0 -13 -20 -17 -45
-3 -25 -10 -45 -14 -45 -4 0 -11 -16 -15 -36 -3 -20 -10 -44 -14 -53 -5 -9
-16 -43 -26 -76 -9 -33 -20 -67 -25 -75 -4 -9 -11 -30 -15 -49 -4 -18 -13 -44
-21 -59 -8 -15 -14 -37 -14 -49 0 -12 -4 -24 -9 -27 -5 -3 -12 -22 -16 -42 -3
-20 -10 -44 -14 -53 -5 -9 -16 -43 -26 -76 -10 -33 -23 -73 -30 -90 -21 -49
-45 -129 -45 -147 0 -10 -4 -18 -9 -18 -5 0 -11 -18 -15 -40 -3 -23 -11 -49
-16 -58 -5 -9 -23 -62 -41 -117 -17 -55 -35 -108 -40 -117 -5 -9 -12 -35 -15
-58 -4 -22 -10 -40 -15 -40 -4 0 -11 -20 -15 -45 -3 -25 -10 -45 -15 -45 -5 0
-9 -9 -9 -21 0 -12 -6 -35 -13 -52 -8 -18 -22 -59 -32 -92 -10 -33 -24 -74
-31 -92 -8 -17 -14 -40 -14 -51 0 -12 -4 -24 -10 -27 -13 -8 -13 -45 -1 -45 5
0 13 9 16 20 3 11 12 20 19 20 7 0 17 10 23 23 6 12 26 41 44 64 39 47 126
164 149 197 8 13 27 38 43 57 15 19 40 52 57 74 16 22 43 58 60 80 17 22 51
67 76 100 70 95 72 98 110 145 20 25 41 55 47 67 6 13 14 23 18 23 5 0 21 19
36 43 16 23 36 51 45 61 10 11 20 28 24 38 3 10 9 18 15 18 5 0 21 19 36 43
16 23 38 52 51 65 12 13 22 26 22 30 0 4 12 21 26 37 14 17 32 42 40 58 8 15
19 27 24 27 5 0 16 13 25 30 8 16 26 40 39 53 13 13 31 38 40 56 9 17 21 31
26 31 5 0 11 8 14 18 4 10 19 32 35 48 15 16 36 44 45 62 9 17 20 32 24 32 5
0 21 20 36 45 16 25 32 45 37 45 4 0 10 9 14 19 3 11 21 36 40 57 19 21 35 41
35 45 0 5 10 19 23 33 12 13 40 50 62 81 22 32 50 67 61 79 12 13 26 32 32 43
6 11 27 40 47 64 53 65 57 70 88 117 15 23 31 42 36 42 4 0 12 10 18 23 6 12
27 42 47 67 19 25 42 54 51 65 34 45 81 109 95 129 8 12 28 37 45 57 16 20 41
53 55 73 14 21 39 54 57 74 18 20 37 49 44 65 6 15 15 27 19 27 7 0 41 43 100
126 30 43 81 110 101 134 35 42 118 153 146 195 14 22 33 47 42 55 16 15 23
24 83 113 18 26 36 47 40 47 4 0 14 12 22 28 8 15 28 42 45 61 17 19 33 43 37
53 3 10 9 18 14 18 5 0 16 12 24 28 8 15 27 41 41 57 15 17 33 42 41 58 8 15
19 27 23 27 5 0 20 17 32 38 13 20 25 39 29 42 3 3 18 23 35 45 16 22 32 42
35 45 4 3 19 24 34 48 14 23 30 42 35 42 6 0 12 8 15 18 4 10 14 27 24 38 10
10 28 35 41 54 13 19 29 40 35 45 6 6 23 29 39 53 15 23 31 42 36 42 6 0 13 9
16 20 4 11 16 32 28 45 12 14 40 50 62 81 22 30 56 75 75 99 19 24 46 60 60
80 14 19 39 52 57 72 17 19 37 48 43 64 7 16 16 29 20 29 9 0 90 108 90 120 0
6 -8 10 -17 10 -52 1 -1454 167 -1460 173 -4 4 0 22 9 40 24 46 58 125 58 134
1 4 9 26 20 48 11 22 19 48 20 58 0 9 5 17 10 17 6 0 15 20 22 45 7 25 16 45
20 45 4 0 10 16 14 35 3 19 10 38 15 41 5 2 14 24 20 47 6 23 14 44 18 47 3 3
17 32 30 65 31 79 44 109 75 177 14 31 26 61 26 67 0 5 6 22 14 38 7 15 20 44
29 63 8 19 24 55 35 80 12 25 24 57 27 73 4 15 11 27 15 27 4 0 10 12 13 28 3
15 22 61 41 103 20 42 36 81 36 85 1 5 9 27 20 49 11 22 19 48 20 58 0 9 4 17
10 17 5 0 15 20 21 45 6 25 15 45 20 45 4 0 11 16 15 35 3 19 10 38 15 41 5 2
14 24 20 47 6 23 14 44 18 47 9 7 61 138 61 155 0 8 5 15 10 15 6 0 10 6 10
13 0 6 11 35 25 62 13 28 25 55 25 62 0 11 7 28 44 101 9 19 16 39 16 46 0 9
-268 43 -942 120 -519 60 -955 110 -969 113 -24 5 -29 0 -54 -53z m980 -165
c446 -51 814 -96 819 -100 6 -5 3 -16 -6 -26 -9 -10 -19 -33 -23 -50 -3 -18
-11 -33 -16 -33 -5 0 -9 -7 -9 -15 0 -16 -51 -147 -61 -155 -3 -3 -12 -22 -19
-43 -7 -22 -18 -51 -26 -65 -8 -15 -14 -35 -14 -44 0 -10 -4 -18 -9 -18 -5 0
-14 -20 -20 -45 -6 -25 -16 -45 -21 -45 -6 0 -10 -8 -10 -18 0 -9 -8 -33 -19
-52 -10 -19 -22 -50 -25 -67 -4 -18 -11 -33 -14 -33 -4 0 -12 -15 -19 -32 -33
-94 -49 -133 -55 -136 -5 -2 -8 -8 -8 -14 0 -6 -12 -38 -26 -72 -15 -33 -32
-74 -39 -91 -7 -16 -19 -46 -28 -65 -9 -19 -19 -46 -22 -60 -4 -14 -13 -32
-20 -40 -7 -8 -16 -30 -20 -47 -3 -18 -11 -33 -16 -33 -5 0 -9 -7 -9 -15 0
-19 -35 -107 -99 -246 -12 -25 -21 -54 -21 -63 0 -9 -4 -16 -9 -16 -5 0 -14
-20 -20 -45 -6 -25 -16 -45 -21 -45 -6 0 -10 -8 -10 -17 0 -10 -6 -30 -14 -45
-8 -14 -19 -43 -26 -65 -7 -21 -16 -40 -19 -43 -6 -5 -20 -39 -50 -120 -9 -25
-19 -47 -23 -50 -3 -3 -10 -19 -14 -35 -4 -16 -16 -44 -27 -63 -11 -19 -16
-37 -11 -41 5 -4 315 -42 689 -85 725 -82 745 -85 745 -95 0 -3 -15 -23 -33
-43 -17 -20 -43 -54 -57 -74 -14 -20 -35 -48 -48 -61 -13 -14 -34 -41 -47 -61
-14 -21 -47 -66 -75 -102 -27 -35 -53 -72 -56 -82 -3 -10 -11 -18 -17 -18 -7
0 -20 -15 -30 -32 -10 -18 -30 -47 -45 -65 -15 -17 -43 -54 -62 -82 -19 -28
-47 -64 -62 -81 -16 -16 -28 -33 -28 -37 0 -5 -13 -22 -29 -38 -15 -17 -34
-41 -40 -54 -7 -12 -19 -30 -27 -39 -56 -65 -93 -114 -99 -132 -3 -11 -10 -20
-14 -20 -5 0 -21 -19 -37 -42 -16 -24 -34 -46 -40 -50 -6 -4 -17 -21 -24 -38
-7 -16 -16 -30 -21 -30 -5 0 -21 -19 -36 -42 -16 -24 -33 -47 -39 -53 -6 -5
-22 -26 -35 -45 -13 -19 -31 -44 -41 -54 -10 -11 -20 -28 -24 -38 -3 -10 -9
-18 -15 -18 -5 0 -21 -19 -35 -42 -14 -22 -37 -52 -50 -65 -13 -13 -24 -27
-24 -32 0 -4 -8 -16 -18 -27 -10 -10 -28 -36 -41 -56 -12 -21 -27 -38 -32 -38
-4 0 -15 -12 -23 -27 -8 -16 -26 -41 -41 -58 -14 -16 -33 -42 -41 -57 -8 -16
-19 -28 -24 -28 -5 0 -11 -8 -14 -18 -4 -10 -20 -34 -37 -53 -17 -19 -37 -46
-45 -61 -8 -16 -18 -28 -22 -28 -4 0 -18 -17 -32 -38 -14 -20 -33 -46 -42 -56
-10 -11 -18 -23 -18 -27 0 -3 -16 -24 -35 -45 -19 -21 -35 -41 -35 -45 0 -4
-16 -27 -36 -51 -19 -23 -42 -51 -49 -60 -8 -10 -26 -36 -40 -58 -14 -22 -29
-40 -34 -40 -4 0 -12 -10 -18 -22 -9 -20 -50 -75 -95 -128 -7 -9 -25 -35 -41
-58 -15 -23 -31 -42 -36 -42 -6 0 -13 -9 -16 -20 -4 -11 -23 -40 -43 -65 -20
-24 -48 -60 -62 -80 -14 -21 -39 -54 -55 -74 -17 -20 -37 -46 -45 -57 -25 -36
-113 -153 -149 -197 -18 -23 -38 -52 -44 -64 -6 -13 -14 -23 -18 -23 -4 0 -33
-35 -64 -77 -78 -110 -112 -154 -135 -183 -12 -14 -39 -50 -61 -80 -22 -30
-48 -64 -57 -75 -10 -11 -26 -33 -36 -49 -11 -17 -29 -40 -42 -53 -12 -12 -25
-32 -29 -43 -3 -11 -10 -20 -14 -20 -5 0 -21 -20 -37 -45 -15 -25 -31 -45 -36
-45 -4 0 -15 -15 -24 -33 -9 -17 -30 -45 -45 -61 -16 -16 -31 -38 -35 -48 -3
-10 -9 -18 -14 -18 -5 0 -17 -15 -26 -33 -9 -17 -23 -36 -30 -40 -8 -4 -25
-27 -39 -51 -25 -43 -65 -76 -46 -38 5 9 16 44 26 77 10 33 24 74 31 92 8 17
14 40 14 51 0 12 4 23 9 27 6 3 13 26 17 50 3 25 10 45 14 45 4 0 11 16 15 36
3 20 10 44 14 53 16 31 101 297 101 314 0 9 4 17 9 17 5 0 11 18 15 40 3 23
11 49 16 58 5 9 23 62 41 117 17 55 35 108 40 117 5 9 12 35 15 58 4 22 10 40
14 40 4 0 11 20 14 45 4 25 11 45 15 45 5 0 12 16 16 36 3 20 10 44 14 53 5 9
16 43 26 76 9 33 20 67 25 75 4 9 11 30 15 49 4 18 13 44 21 59 8 15 14 37 14
49 0 12 4 24 9 27 5 3 12 22 16 42 3 20 10 44 15 53 4 9 22 61 39 116 18 55
36 108 41 117 5 9 13 35 16 58 4 22 10 40 15 40 5 0 9 8 9 17 0 19 53 187 76
241 8 18 14 41 14 52 0 10 4 21 9 25 6 3 13 26 17 50 3 25 10 45 14 45 4 0 11
16 15 36 3 20 10 44 14 53 16 31 101 297 101 314 0 9 4 17 9 17 5 0 11 18 15
40 3 23 10 49 15 58 8 17 30 79 34 97 1 5 -335 48 -774 99 l-776 90 10 33 c6
18 14 33 19 33 4 0 8 7 8 16 0 14 12 42 71 170 11 22 19 46 19 52 0 7 5 12 10
12 6 0 10 7 10 15 0 9 18 53 39 99 22 46 43 95 47 110 3 14 10 26 14 26 5 0
11 15 15 33 4 17 13 41 20 53 8 12 25 50 40 85 29 72 42 101 79 179 14 30 26
61 26 68 0 6 5 12 10 12 6 0 10 7 10 17 0 9 11 39 24 67 47 97 66 142 66 154
0 7 5 12 10 12 6 0 10 8 10 17 0 10 11 40 24 68 22 45 37 80 81 180 7 17 24
55 38 85 13 30 32 73 42 95 9 22 26 59 36 83 21 46 48 107 72 162 8 19 18 45
22 58 3 12 10 22 15 22 4 0 11 12 15 28 3 15 14 45 24 67 34 75 49 110 56 133
3 12 10 22 15 22 5 0 12 15 15 33 4 17 13 43 21 57 7 14 23 48 35 75 12 28 32
75 46 105 38 84 50 113 58 138 3 12 11 22 16 22 5 0 9 8 9 18 0 9 12 40 25 67
14 28 25 58 25 68 0 9 4 17 8 17 5 0 14 18 21 40 6 22 16 40 21 40 6 0 10 7
10 16 0 8 12 41 26 72 14 31 33 73 41 92 8 19 24 55 35 80 11 25 26 59 33 75
8 17 25 55 39 86 14 31 26 59 26 63 0 4 8 18 17 32 13 21 22 25 47 20 17 -3
396 -46 841 -97z"/>
</g>
</svg>
